<svg xmlns:dc="http://purl.org/dc/elements/1.1/" xmlns:cc="http://creativecommons.org/ns#" xmlns:rdf="http://www.w3.org/1999/02/22-rdf-syntax-ns#" xmlns:svg="http://www.w3.org/2000/svg" xmlns="http://www.w3.org/2000/svg" xmlns:sodipodi="http://sodipodi.sourceforge.net/DTD/sodipodi-0.dtd" xmlns:inkscape="http://www.inkscape.org/namespaces/inkscape" width="100" height="100" id="svg2" version="1.1" inkscape:version="0.48.5 r10040" sodipodi:docname="redo.svg" viewBox="5.0 -10.0 100 135.0">
  <defs id="defs4"/>
  <sodipodi:namedview id="base" pagecolor="#ffffff" bordercolor="#666666" borderopacity="1.0" inkscape:pageopacity="0.0" inkscape:pageshadow="2" inkscape:zoom="2.8145597" inkscape:cx="-4.8790091" inkscape:cy="90.67855" inkscape:document-units="px" inkscape:current-layer="layer1" showgrid="false" inkscape:window-width="1366" inkscape:window-height="721" inkscape:window-x="-4" inkscape:window-y="-4" inkscape:window-maximized="1"/>
  <metadata id="metadata7">
    <rdf:RDF>
      <cc:Work rdf:about="">
        <dc:format>image/svg+xml</dc:format>
        <dc:type rdf:resource="http://purl.org/dc/dcmitype/StillImage"/>
        <dc:title/>
      </cc:Work>
    </rdf:RDF>
  </metadata>
  <g inkscape:label="Layer 1" inkscape:groupmode="layer" id="layer1" transform="translate(0,-952.36218)">
    <path style="font-size:medium;font-style:normal;font-variant:normal;font-weight:normal;font-stretch:normal;text-indent:0;text-align:start;text-decoration:none;line-height:normal;letter-spacing:normal;word-spacing:normal;text-transform:none;direction:ltr;block-progression:tb;writing-mode:lr-tb;text-anchor:start;baseline-shift:baseline;color:#000000;fill:#000000;fill-opacity:1;fill-rule:nonzero;stroke:none;stroke-width:6;marker:none;visibility:visible;display:inline;overflow:visible;enable-background:accumulate;font-family:Sans;-inkscape-font-specification:Sans" d="m 38.450355,961.85959 c -7.4222,0 -14.854391,2.82314 -20.5,8.46875 -11.2912173,11.29121 -11.2912183,29.67756 0,40.96876 10.57961,10.5796 27.384,11.2461 38.75,2 l 0.03125,0 28.65625,28.6875 a 3.0052038,3.0052038 0 1 0 4.25,-4.25 l -28.6875,-28.6875 c 9.21714,-11.36553 8.56907,-28.1497 -2,-38.71876 -5.64561,-5.64561 -13.0778,-8.46875 -20.5,-8.46875 z m 0,5.96875 c 5.87577,0 11.75084,2.25084 16.25,6.75 8.93593,8.93592 8.99949,23.30126 0.1875,32.31246 -0.02051,0.021 -0.04189,0.042 -0.0625,0.062 a 3.0003,3.0003 0 0 0 -0.25,0.2188 c -9.00617,8.8869 -23.4139,8.8361 -32.375,-0.125 -8.998325,-8.99834 -8.998322,-23.47044 0,-32.46876 4.49916,-4.49916 10.37423,-6.75 16.25,-6.75 z" id="path3529" inkscape:connector-curvature="0"/>
  </g>
</svg>