<svg xmlns="http://www.w3.org/2000/svg" xmlns:xlink="http://www.w3.org/1999/xlink" version="1.1" id="Layer_1" x="0px" y="0px" width="100.0px" height="100px" viewBox="0 0 283.46 283.46" enable-background="new 0 0 283.46 283.46" xml:space="preserve">
<path fill="#000000" d="M253.409,56.125c0.408-0.534,0.787-1.091,1.117-1.683l0.396-0.599l-0.072-0.045c0.88-1.802,1.387-3.819,1.387-5.959  c0-7.514-6.094-13.608-13.608-13.608c-4.4,0-8.302,2.098-10.79,5.338l0,0L112.749,190.603L55.276,141.02  c-0.751-0.792-1.579-1.51-2.477-2.139l-0.076-0.065l-0.005,0.004c-2.623-1.808-5.798-2.874-9.226-2.874  c-8.985,0-16.27,7.284-16.27,16.267c0,4.079,1.512,7.798,3.992,10.653l-0.009,0.01l72.318,79.831  c2.968,3.953,7.681,6.522,13.005,6.522c5.322,0,10.034-2.569,13.002-6.521h0.01l0.076-0.114c0.318-0.431,0.614-0.877,0.889-1.34  L253.409,56.125z"/>
</svg>